<?xml version="1.0" encoding="UTF-8" standalone="no"?><!DOCTYPE svg PUBLIC "-//W3C//DTD SVG 1.1//EN" "http://www.w3.org/Graphics/SVG/1.1/DTD/svg11.dtd"><svg xmlns="http://www.w3.org/2000/svg" xmlns:xlink="http://www.w3.org/1999/xlink" version="1.1" width="180" height="180" viewBox="0 0 180 180">
<desc>Created with SVGMaker Editor 3.0.0</desc>
<defs>
</defs>
<path transform="translate(0,0)" style="fill: rgb(0,102,139); fill-rule: evenodd" stroke-linecap="round" d="M68.5513 110.3185L109.2472 124.1555C109.4642 124.3215 109.5992 124.4675 109.6462 124.5885 110.4272 126.6255 92.6642 164.4335 90.9262 164.4335 89.5622 164.4335 65.1252 113.3025 64.9992 110.1835 64.9823 109.7695 66.3237 109.8655 68.5513 110.3185Z"/>
<path transform="translate(0,0)" style="fill: rgb(69,0,139); fill-rule: evenodd" stroke-linecap="round" d="M104.337 71.7154L128.845 80.1169C129.801 81.8679 128.732 84.2514 126.648 88.7975 124.975 92.4475 121.779 99.4235 119.545 104.2995 117.259 109.2895 115.93 111.6575 115.018 112.2065L109.841 110.4805 84.6372 102.0795 76.6248 99.4095 56.2204 92.6075 52.368 84.2695C47.406 73.5285 45.5 66.2695 45.5 58.1065 45.5 52.4855 45.714 51.7605 47.25 52.1905L47.9802 52.3967 73.1293 61.0177C73.3715 61.1591 73.5 61.2675 73.5 61.3375 73.5 72.8825 90.34 80.5915 100.913 73.8865L104.337 71.7154Z"/>
<path transform="translate(0,0)" style="fill: rgb(139,0,139); fill-rule: evenodd" stroke-linecap="round" d="M134.866 64.1144C135.516 63.5155 135.504 62.1965 135.484 60.0625L135.484 60.0563C135.481 59.749 135.477 59.4248 135.476 59.0835 135.354 30.4305 108.951 10.7045 79.5 17.2635 70.856 19.1885 63.043 23.5835 56.995 29.9235 53.1991 33.9032 51.3514 35.8535 52.3042 37.3941L77.6964 45.6375C79.6021 45.6033 80.1814 44.9646 82.0815 43.5646 92.9814 37.3646 103.279 41.9435 108.419 53.3335 108.972 54.5599 109.1814 55.4646 110.039 56.1372L134.795 64.1744 134.842 64.1894 134.866 64.1144Z"/>
</svg>